<svg width="20" height="20" viewBox="0 0 20 20" fill="none" xmlns="http://www.w3.org/2000/svg">
<path fill-rule="evenodd" clip-rule="evenodd" d="M19.1972 2.92394C19.783 2.33815 19.783 1.38841 19.1972 0.802621C18.6114 0.216834 17.6617 0.216834 17.0759 0.802621L9.99993 7.87861L2.92394 0.802621C2.33815 0.216834 1.38841 0.216834 0.802621 0.802621C0.216834 1.38841 0.216834 2.33815 0.802621 2.92394L7.87861 9.99993L0.802621 17.0759C0.216834 17.6617 0.216834 18.6114 0.802621 19.1972C1.38841 19.783 2.33815 19.783 2.92394 19.1972L9.99993 12.1212L17.0759 19.1972C17.6617 19.783 18.6114 19.783 19.1972 19.1972C19.783 18.6114 19.783 17.6617 19.1972 17.0759L12.1212 9.99993L19.1972 2.92394Z" fill="#6e051e"/>
</svg>
